<?xml version="1.0" encoding="UTF-8" standalone="no"?>
<!-- Created with Inkscape (http://www.inkscape.org/) -->

<svg
   xmlns:dc="http://purl.org/dc/elements/1.1/"
   xmlns:cc="http://creativecommons.org/ns#"
   xmlns:rdf="http://www.w3.org/1999/02/22-rdf-syntax-ns#"
   xmlns:svg="http://www.w3.org/2000/svg"
   xmlns="http://www.w3.org/2000/svg"
   xmlns:sodipodi="http://sodipodi.sourceforge.net/DTD/sodipodi-0.dtd"
   xmlns:inkscape="http://www.inkscape.org/namespaces/inkscape"
   width="295.25552mm"
   height="166.37137mm"
   viewBox="0 0 295.25552 166.37137"
   version="1.1"
   id="svg271"
   inkscape:version="0.92+devel unknown"
   sodipodi:docname="Open Book Remixed.svg">
  <title
     id="title283">Open Book Remixed</title>
  <defs
     id="defs265" />
  <sodipodi:namedview
     id="base"
     pagecolor="#ffffff"
     bordercolor="#666666"
     borderopacity="1.0"
     inkscape:pageopacity="0.0"
     inkscape:pageshadow="2"
     inkscape:zoom="0.35"
     inkscape:cx="849.44502"
     inkscape:cy="494.31695"
     inkscape:document-units="mm"
     inkscape:current-layer="layer1"
     inkscape:document-rotation="0"
     showgrid="false"
     fit-margin-top="10"
     fit-margin-left="10"
     fit-margin-right="10"
     fit-margin-bottom="10"
     inkscape:window-width="1920"
     inkscape:window-height="1054"
     inkscape:window-x="0"
     inkscape:window-y="0"
     inkscape:window-maximized="1" />
  <metadata
     id="metadata268">
    <rdf:RDF>
      <cc:Work
         rdf:about="">
        <dc:format>image/svg+xml</dc:format>
        <dc:type
           rdf:resource="http://purl.org/dc/dcmitype/StillImage" />
        <dc:title>Open Book Remixed</dc:title>
        <cc:license
           rdf:resource="http://creativecommons.org/publicdomain/zero/1.0/" />
        <dc:creator>
          <cc:Agent>
            <dc:title>Rygle &amp; Johnny Automatic</dc:title>
          </cc:Agent>
        </dc:creator>
        <dc:rights>
          <cc:Agent>
            <dc:title>Public Domain</dc:title>
          </cc:Agent>
        </dc:rights>
        <dc:subject>
          <rdf:Bag>
            <rdf:li>Book</rdf:li>
            <rdf:li>black and white</rdf:li>
            <rdf:li>reading</rdf:li>
            <rdf:li>read</rdf:li>
          </rdf:Bag>
        </dc:subject>
      </cc:Work>
      <cc:License
         rdf:about="http://creativecommons.org/publicdomain/zero/1.0/">
        <cc:permits
           rdf:resource="http://creativecommons.org/ns#Reproduction" />
        <cc:permits
           rdf:resource="http://creativecommons.org/ns#Distribution" />
        <cc:permits
           rdf:resource="http://creativecommons.org/ns#DerivativeWorks" />
      </cc:License>
    </rdf:RDF>
  </metadata>
  <g
     inkscape:label="Layer 1"
     inkscape:groupmode="layer"
     id="layer1"
     transform="translate(-2.0367197,-113.24999)">
    <g
       transform="matrix(2.1892029,0,0,2.1892029,334.56975,-230.80551)"
       id="g252">
      <path
         sodipodi:nodetypes="cccccccccccccccccccccccccc"
         inkscape:connector-curvature="0"
         style="fill:#000000;fill-opacity:1;fill-rule:nonzero;stroke:none;stroke-width:1.89333892"
         d="m -107.21384,161.73905 c -2.02775,0.042 -4.14261,0.30279 -6.30292,0.7308 -9.08535,2.16242 -21.18448,7.31537 -26.16267,9.42627 -2.37969,2.22397 -4.09047,4.87733 -5.6678,6.98995 l -0.76683,-0.0937 c -0.80787,-0.11509 -1.07481,-0.11006 -1.21492,0.79292 1.66423,12.27638 3.77154,24.70804 5.43577,36.71184 0.56991,4.14261 1.3572,8.51327 2.07886,12.29149 12.06248,-3.83776 22.40582,-6.94275 34.62084,-9.48203 5.554667,-0.98251 13.01797,-1.80251 16.68539,-1.66239 3.03312,0.1102 4.806703,0.31082 7.646713,0.35433 5.82011,0.0892 8.97063,-3.15052 14.13944,-3.84538 3.4762,-0.47335 7.59608,-0.0892 11.30134,-0.0472 11.75952,0.14222 20.620388,-0.38398 32.705608,0.24471 0.06346,-0.73327 0.188584,-1.41005 0.308703,-2.20947 -0.87238,-0.83693 -1.134316,-1.04283 -1.704631,-1.61338 0.25491,-1.86752 1.230462,-5.67033 2.51519,-10.82925 -0.25718,-0.87471 -20.65064,-26.01145 -27.51586,-34.93808 l -0.13225,-0.20676 h -0.27446 c -7.04705,0.54713 -14.30229,-1.62073 -21.64657,-2.29287 -1.83463,-0.17055 -3.66926,-0.24402 -5.51717,-0.15533 -5.40738,0.27288 -10.8432,1.93696 -16.14641,6.70815 -2.1887,-3.38152 -5.14043,-5.39227 -8.601453,-6.2878 -1.8119,-0.46601 -3.76398,-0.63614 -5.78223,-0.59075 z"
         id="path248" />
      <path
         sodipodi:nodetypes="cccccccccccccccccccccccccccccccccsccccc"
         inkscape:connector-curvature="0"
         id="path250"
         style="fill:#ffffff;fill-opacity:1;fill-rule:nonzero;stroke:none;stroke-width:1.89333892"
         d="m -76.528042,205.53092 c -2.977661,2.25426 -5.290276,4.80765 -3.780316,10.14538 -13.60817,-1.67513 -17.91291,-1.48742 -56.468092,9.51829 1.73608,-3.53435 4.12174,-7.5491 5.57856,-10.33868 14.69419,-4.118 27.22791,-10.12399 35.709613,-11.33016 4.529867,-0.38174 11.275935,-1.17994 18.960235,2.00517 z m 28.359515,-7.09161 c 8.15843,0.33901 16.37359,2.15842 24.39951,2.0997 -1.02576,3.61754 -1.70224,6.29623 -2.39761,9.61604 -30.182765,-1.37935 -41.068275,-3.11963 -48.459803,4.14373 2.306247,-2.59348 2.495351,-6.23218 0.08638,-8.08895 6.288882,-6.49513 19.086017,-7.9733 26.371527,-7.77052 z m -84.629443,15.82625 c -1.55986,3.23154 -2.98934,5.85476 -4.55841,8.6851 -2.45566,-14.60708 -4.3837,-28.48049 -6.66122,-42.93772 1.55057,-2.15724 2.63032,-3.97498 4.35243,-5.79479 1.23101,6.87981 6.67312,38.91833 6.8672,40.04741 z m 57.509313,-51.47008 c 1.34616,-0.004 2.69988,0.0603 4.05171,0.18577 7.13034,0.65892 14.34207,2.82489 21.5443,2.32887 8.54278,11.14605 17.84665,21.77336 25.99747,33.11258 l 0.298631,0.52822 -0.505841,-0.0182 c -7.72103,0.0367 -15.89263,-1.74568 -24.19873,-2.09219 -8.69801,-0.36944 -17.79373,0.83892 -26.34217,7.66435 -6.22583,-10.73722 -12.3956,-24.95186 -17.71396,-35.17077 5.58344,-5.00598 11.18205,-6.49981 16.86966,-6.5377 z m -31.898983,-0.14012 c 1.95202,-0.042 3.80182,0.11913 5.50961,0.56236 3.320903,0.85009 6.124963,2.69233 8.194373,5.97535 -0.0262,0.14011 0,0.28233 0.0682,0.40723 5.86918,12.12419 11.686766,24.31201 17.207358,34.58866 -6.354156,-2.96687 -13.580366,-2.78852 -19.343163,-2.09859 -13.297708,1.59202 -22.266578,7.55013 -35.652488,11.316 -2.46992,-13.34932 -3.80972,-21.66776 -6.86864,-40.41189 4.67486,-2.08826 16.46195,-7.94443 24.75289,-9.60111 2.11486,-0.42979 4.17861,-0.68919 6.13063,-0.74035 z" />
    </g>
  </g>
</svg>
